<svg width="380" height="319" viewBox="0 0 380 319" fill="none" xmlns="http://www.w3.org/2000/svg">
<g clip-path="url(#clip0)">
<path d="M225.349 307.707C225.349 313.927 186.847 318.967 139.27 319H138.837C115.614 319 94.5257 317.805 78.9861 315.866C78.321 315.778 77.6652 315.694 77.0233 315.606C74.3815 315.257 71.9117 314.881 69.6373 314.49C58.7675 312.598 52.3257 310.25 52.3257 307.707C52.3257 305.647 56.5396 303.722 63.9024 302.057C67.7908 301.179 72.5536 300.379 78.042 299.672C79.0513 299.537 80.0869 299.41 81.1489 299.291C96.4559 297.501 116.675 296.413 138.837 296.413C143.144 296.413 147.381 296.455 151.521 296.534C193.284 297.334 225.349 302.03 225.349 307.707Z" fill="#3F3D56"/>
<path d="M220.232 0.400146H92.0969V66.0447H220.232V0.400146Z" fill="#F2F2F2"/>
<path d="M220.633 66.4451H91.6968V0H220.633V66.4451ZM92.4976 65.6446H219.832V0.800542H92.4976V65.6446Z" fill="#6C63FF"/>
<path d="M379.599 0.400146H251.465V66.0447H379.599V0.400146Z" fill="#F2F2F2"/>
<path d="M220.232 84.8577H92.0969V150.502H220.232V84.8577Z" fill="#F2F2F2"/>
<path d="M379.599 84.8577H251.465V150.502H379.599V84.8577Z" fill="#F2F2F2"/>
<path d="M220.232 169.315H92.0969V234.96H220.232V169.315Z" fill="#F2F2F2"/>
<path d="M206.281 234.824C201.074 233.942 196.067 233.185 191.259 232.552L193.16 228.868C192.519 228.646 189.703 230.755 189.703 230.755L192.197 220.062C188.974 220.451 187.335 231.369 187.335 231.369L183.733 227.678L185.477 231.828C172.829 230.299 160.103 229.499 147.363 229.43L148.99 226.277C148.349 226.055 145.533 228.164 145.533 228.164L148.028 217.471C144.804 217.859 143.165 228.778 143.165 228.778L139.564 225.087L141.411 229.482C134.087 229.603 126.774 230.1 119.501 230.97C121.146 226.058 126.736 221.387 126.736 221.387C122.467 222.656 120.228 224.783 119.058 226.765C118.953 216.631 120.639 206.557 124.038 197.008C124.038 197.008 115.214 216.202 116.34 229.085L116.475 231.373C108.994 232.444 106.051 234.959 106.051 234.959L206.281 234.824Z" fill="#3F3D56"/>
<path d="M144.806 118.166C152.627 118.166 158.967 111.828 158.967 104.01C158.967 96.1913 152.627 89.8533 144.806 89.8533C136.984 89.8533 130.644 96.1913 130.644 104.01C130.644 111.828 136.984 118.166 144.806 118.166Z" fill="#FF6584"/>
<path d="M296.771 193.61L295.111 192.282L304.408 183.984H327.984V191.286L312.71 201.576L296.771 193.61Z" fill="#3F3D56"/>
<path d="M332.283 188.639V184.15H329.153V185.249L327.984 183.984L320.347 192.282L317.358 194.274L312.725 228.116L319.713 235.102H335.953V192.614L332.283 188.639Z" fill="#CCCCCC"/>
<path d="M320.347 192.282H295.111V235.102H320.347V192.282Z" fill="#F2F2F2"/>
<path d="M299.925 227.633V225.974H297.933V227.633H299.759H299.925Z" fill="#3F3D56"/>
<path d="M299.759 228.961H297.933V230.62H299.925V228.961H299.759Z" fill="#3F3D56"/>
<path d="M303.246 225.973H301.254V227.633H303.246V225.973Z" fill="#3F3D56"/>
<path d="M303.246 228.961H301.254V230.62H303.246V228.961Z" fill="#3F3D56"/>
<path d="M313.54 227.633V225.974H311.547V227.633H313.374H313.54Z" fill="#3F3D56"/>
<path d="M316.86 225.973H314.868V227.633H316.86V225.973Z" fill="#3F3D56"/>
<path d="M327.486 194.44V192.78H325.494V194.44H327.32H327.486Z" fill="#3F3D56"/>
<path d="M327.32 195.768H325.494V197.427H327.486V195.768H327.32Z" fill="#3F3D56"/>
<path d="M330.807 192.78H328.814V194.44H330.807V192.78Z" fill="#3F3D56"/>
<path d="M330.807 195.768H328.814V197.427H330.807V195.768Z" fill="#3F3D56"/>
<path d="M327.486 203.734V202.074H325.494V203.734H327.32H327.486Z" fill="#3F3D56"/>
<path d="M327.32 205.062H325.494V206.721H327.486V205.062H327.32Z" fill="#3F3D56"/>
<path d="M330.807 202.074H328.814V203.734H330.807V202.074Z" fill="#3F3D56"/>
<path d="M330.807 205.062H328.814V206.721H330.807V205.062Z" fill="#3F3D56"/>
<path d="M327.486 213.028V211.368H325.494V213.028H327.32H327.486Z" fill="#3F3D56"/>
<path d="M327.32 214.355H325.494V216.015H327.486V214.355H327.32Z" fill="#3F3D56"/>
<path d="M330.807 211.368H328.814V213.028H330.807V211.368Z" fill="#3F3D56"/>
<path d="M330.807 214.356H328.814V216.015H330.807V214.356Z" fill="#3F3D56"/>
<path d="M327.486 222.322V220.662H325.494V222.322H327.32H327.486Z" fill="#3F3D56"/>
<path d="M327.32 223.65H325.494V225.31H327.486V223.65H327.32Z" fill="#3F3D56"/>
<path d="M330.807 220.662H328.814V222.322H330.807V220.662Z" fill="#3F3D56"/>
<path d="M330.807 223.65H328.814V225.31H330.807V223.65Z" fill="#3F3D56"/>
<path d="M144.886 191.179H161.788V187.101H171.114V191.179H188.599V209.24H171.114V231.962H161.788V209.24H144.886L136.143 199.336L144.886 191.179Z" fill="#3F3D56"/>
<path d="M194.605 150.502H193.804C193.804 140.099 189.67 130.121 182.31 122.765C174.951 115.408 164.97 111.276 154.563 111.276C144.155 111.276 134.174 115.408 126.815 122.765C119.456 130.121 115.321 140.099 115.321 150.502H114.521C114.524 139.889 118.744 129.711 126.253 122.207C133.762 114.703 143.945 110.488 154.563 110.488C165.18 110.488 175.363 114.703 182.872 122.207C190.381 129.711 194.601 139.889 194.605 150.502Z" fill="#3F3D56"/>
<path d="M135.49 110.275L134.466 110.277L134.542 150.685L135.566 150.683L135.49 110.275Z" fill="#3F3D56"/>
<path d="M144.943 115.407C145.035 129.537 135.112 141.056 135.112 141.056C135.112 141.056 125.04 129.666 124.948 115.537C124.856 101.407 134.78 89.8882 134.78 89.8882C134.78 89.8882 144.851 101.278 144.943 115.407Z" fill="#6C63FF"/>
<path opacity="0.1" d="M144.943 115.407C145.035 129.537 135.112 141.056 135.112 141.056C135.112 141.056 125.04 129.666 124.948 115.537C124.856 101.407 134.78 89.8882 134.78 89.8882C134.78 89.8882 144.851 101.278 144.943 115.407Z" fill="black"/>
<path d="M122.186 110.3L121.163 110.302L121.239 150.71L122.262 150.708L122.186 110.3Z" fill="#3F3D56"/>
<path d="M131.639 115.432C131.731 129.562 121.808 141.081 121.808 141.081C121.808 141.081 111.736 129.692 111.644 115.562C111.553 101.432 121.476 89.9133 121.476 89.9133C121.476 89.9133 131.548 101.303 131.639 115.432Z" fill="#6C63FF"/>
<path d="M190.331 118.779H189.521V150.769H190.331V118.779Z" fill="#3F3D56"/>
<path d="M197.808 122.855C197.86 134.041 189.987 143.146 189.987 143.146C189.987 143.146 182.03 134.114 181.979 122.928C181.927 111.742 189.8 102.638 189.8 102.638C189.8 102.638 197.756 111.669 197.808 122.855Z" fill="#6C63FF"/>
<path d="M313.711 146.519C329.091 146.519 341.559 134.055 341.559 118.681C341.559 103.306 329.091 90.8425 313.711 90.8425C298.331 90.8425 285.863 103.306 285.863 118.681C285.863 134.055 298.331 146.519 313.711 146.519Z" fill="#3F3D56"/>
<path d="M316.496 108.316V119.97H299.55L296.419 123.724L296.776 119.97H295.253V108.316H316.496Z" fill="#6C63FF"/>
<path opacity="0.1" d="M316.496 112.33H308.854V119.97H316.496V112.33Z" fill="black"/>
<path d="M310.537 114.013H331.78V125.667H330.257L330.614 129.422L327.484 125.667H310.537V114.013Z" fill="#6C63FF"/>
<path opacity="0.1" d="M296.549 125.604C299.124 125.604 301.212 125.4 301.212 125.149C301.212 124.898 299.124 124.694 296.549 124.694C293.973 124.694 291.886 124.898 291.886 125.149C291.886 125.4 293.973 125.604 296.549 125.604Z" fill="black"/>
<path opacity="0.1" d="M330.614 131.752C333.547 131.752 335.925 131.521 335.925 131.234C335.925 130.948 333.547 130.717 330.614 130.717C327.681 130.717 325.304 130.948 325.304 131.234C325.304 131.521 327.681 131.752 330.614 131.752Z" fill="black"/>
<path d="M329.52 8.55868H311.118C310.23 8.55868 309.368 8.86068 308.675 9.41506C307.981 9.96943 307.497 10.7432 307.302 11.6091L298.004 52.8365C297.902 53.2862 297.9 53.7526 297.998 54.2031C298.096 54.6535 298.292 55.0771 298.571 55.4441C298.85 55.8111 299.206 56.1126 299.614 56.3276C300.022 56.5425 300.472 56.6656 300.932 56.6883L319.85 57.62C320.863 57.6699 321.859 57.3497 322.654 56.7191C323.448 56.0885 323.985 55.1906 324.166 54.1929L329.44 25.0447L329.833 25.1568L330.842 19.6321L330.438 19.5311L331.91 11.3948C331.973 11.0463 331.959 10.6882 331.867 10.346C331.776 10.0038 331.61 9.68595 331.382 9.41509C331.154 9.14423 330.869 8.92705 330.547 8.77902C330.225 8.63098 329.874 8.55575 329.52 8.55868V8.55868Z" fill="#3F3D56"/>
<path d="M313.541 9.44727H311.392C310.776 9.44727 310.177 9.65816 309.697 10.045C309.216 10.4317 308.883 10.9711 308.751 11.5736L299.826 52.4647C299.775 52.7001 299.775 52.9439 299.826 53.1793C299.878 53.4147 299.979 53.6362 300.124 53.8287C300.269 54.0212 300.454 54.1802 300.666 54.2948C300.878 54.4093 301.113 54.4768 301.353 54.4926L320.21 55.7279C320.742 55.7628 321.268 55.6006 321.688 55.2724C322.108 54.9442 322.392 54.4728 322.487 53.9484L330.102 11.6835C330.152 11.4099 330.14 11.1289 330.069 10.8602C329.998 10.5915 329.868 10.3417 329.69 10.1285C329.512 9.9152 329.289 9.74368 329.037 9.62597C328.785 9.50827 328.51 9.44727 328.232 9.44727H326.194C325.997 9.44727 325.806 9.51226 325.649 9.63219C325.492 9.75212 325.38 9.92029 325.329 10.1107V10.1107C325.283 10.2787 325.184 10.4272 325.046 10.5331C324.907 10.6389 324.738 10.6963 324.564 10.6963H314.89C314.549 10.6963 314.221 10.5677 313.97 10.3361C313.72 10.1045 313.567 9.78709 313.541 9.44727V9.44727Z" fill="#6C63FF"/>
<path d="M158.745 59.9223C173.463 59.9223 185.394 47.9956 185.394 33.2834C185.394 18.5712 173.463 6.64453 158.745 6.64453C144.028 6.64453 132.096 18.5712 132.096 33.2834C132.096 47.9956 144.028 59.9223 158.745 59.9223Z" fill="#6C63FF"/>
<path d="M181.95 50.0086C176.833 50.0089 165.534 44.7556 155.486 38.6031C143.016 30.9685 130.906 20.9895 133.023 17.534C133.622 16.5575 135.105 16.3021 137.558 16.7523L137.382 17.7098C135.482 17.3603 134.197 17.4823 133.854 18.0422C133.353 18.859 134.457 21.2303 139.054 25.4357C143.244 29.2686 149.26 33.6499 155.994 37.773C162.728 41.8961 169.367 45.2626 174.686 47.2523C180.523 49.436 183.137 49.3407 183.637 48.5245C183.981 47.9637 183.503 46.7619 182.327 45.2268L183.1 44.6349C184.619 46.6174 185.066 48.0559 184.468 49.0327C184.057 49.7038 183.183 50.0086 181.95 50.0086Z" fill="#3F3D56"/>
<path d="M155.456 25.0396C158.466 25.0396 160.907 22.6 160.907 19.5907C160.907 16.5814 158.466 14.1418 155.456 14.1418C152.446 14.1418 150.005 16.5814 150.005 19.5907C150.005 22.6 152.446 25.0396 155.456 25.0396Z" fill="white"/>
<path d="M157.035 53.0935C159.042 53.0935 160.669 51.4671 160.669 49.4609C160.669 47.4547 159.042 45.8284 157.035 45.8284C155.028 45.8284 153.401 47.4547 153.401 49.4609C153.401 51.4671 155.028 53.0935 157.035 53.0935Z" fill="white"/>
<path d="M169.548 40.6401C171.555 40.6401 173.182 39.0138 173.182 37.0076C173.182 35.0014 171.555 33.375 169.548 33.375C167.542 33.375 165.915 35.0014 165.915 37.0076C165.915 39.0138 167.542 40.6401 169.548 40.6401Z" fill="white"/>
<path d="M380 235.36H251.064V168.915H380L380 235.36ZM251.865 234.559H379.199V169.715H251.865V234.559Z" fill="#6C63FF"/>
<path d="M379.199 151.303H250.263V84.8577H379.199V151.303ZM251.064 150.502H378.398V85.6582H251.064V150.502Z" fill="#6C63FF"/>
<path d="M91.3564 293.122C93.5425 301.2 101.03 306.203 101.03 306.203C101.03 306.203 104.973 298.109 102.787 290.031C100.601 281.953 93.1138 276.951 93.1138 276.951C93.1138 276.951 89.1704 285.045 91.3564 293.122Z" fill="#3F3D56"/>
<path d="M94.5684 291.386C100.567 297.223 101.3 306.196 101.3 306.196C101.3 306.196 92.3068 305.705 86.3083 299.868C80.3098 294.031 79.5771 285.058 79.5771 285.058C79.5771 285.058 88.5699 285.549 94.5684 291.386Z" fill="#6C63FF"/>
<path d="M115.524 180.534L109.132 181.244C109.132 181.244 106.29 194.025 109.132 211.066C111.973 228.106 115.524 245.147 115.524 245.147C115.524 245.147 118.366 300.531 119.786 301.241C121.207 301.951 133.992 306.211 134.703 301.951C135.413 297.691 135.413 200.415 135.413 200.415L145.357 247.278C145.357 247.278 146.778 306.211 149.619 306.211C152.46 306.211 161.694 305.501 161.694 300.531C161.694 295.56 163.825 230.237 163.825 230.237C163.825 230.237 163.115 181.954 160.274 180.534C157.432 179.114 115.524 180.534 115.524 180.534Z" fill="#2F2E41"/>
<path d="M121.207 299.111C121.207 299.111 114.814 298.401 113.394 299.111C111.973 299.821 109.842 304.791 113.394 307.631C116.945 310.471 126.179 314.732 129.02 314.732C131.862 314.732 134.703 313.312 134.703 313.312L133.282 301.241L121.207 299.111Z" fill="#2F2E41"/>
<path d="M149.619 302.661L150.329 312.601C150.329 312.601 159.563 314.022 160.274 312.601C160.984 311.181 168.087 307.631 168.797 306.921C169.508 306.211 170.218 298.401 165.956 297.691C161.694 296.981 160.274 299.111 160.274 299.111L149.619 302.661Z" fill="#2F2E41"/>
<path d="M166.126 96.045C166.126 96.045 181.655 86.0623 181.296 79.204C180.936 72.3458 171.574 50.7214 171.574 50.7214C171.574 50.7214 164.251 35.5004 161.339 41.7209C158.428 47.9414 165.166 54.5629 165.166 54.5629L169.515 75.7756L157.695 87.0473L166.126 96.045Z" fill="#A0616A"/>
<path d="M127.599 81.8381C134.661 81.8381 140.385 76.1159 140.385 69.0573C140.385 61.9987 134.661 56.2766 127.599 56.2766C120.538 56.2766 114.814 61.9987 114.814 69.0573C114.814 76.1159 120.538 81.8381 127.599 81.8381Z" fill="#A0616A"/>
<path d="M121.207 76.8678L123.338 90.3586L138.965 87.5184C138.965 87.5184 138.254 74.0276 138.254 72.6076C138.254 71.1875 121.207 76.8678 121.207 76.8678Z" fill="#A0616A"/>
<path d="M120.497 90.3585C120.497 90.3585 138.254 86.0982 140.385 87.5183C142.516 88.9384 153.171 90.3585 153.171 90.3585L165.246 108.82L161.694 132.251C161.694 132.251 160.984 169.883 162.405 176.273C163.825 182.664 171.639 183.374 155.302 184.794C138.965 186.214 136.123 184.084 124.758 186.924C113.394 189.764 104.16 185.504 107.001 182.664C109.842 179.824 114.814 134.381 109.132 130.121C103.449 125.861 101.318 103.849 101.318 103.849C101.318 103.849 120.497 93.9087 120.497 90.3585Z" fill="#3F3D56"/>
<path d="M151.04 92.4885L153.17 90.3584L157.432 86.0981C157.432 86.0981 171.283 92.1335 170.573 94.2636C169.863 96.3937 165.246 108.819 165.246 108.819L158.853 110.95L151.04 92.4885Z" fill="#3F3D56"/>
<path d="M132.062 53.5732L131.931 52.5493C131.061 52.5444 130.197 52.6801 129.372 52.9513C129.287 52.3339 129.341 51.7054 129.53 51.1114C128.691 51.3271 127.891 51.6745 127.161 52.1407L126.645 50.2722L119.544 53.7704C116.995 55.0262 114.308 56.4061 112.851 58.8448C111.226 61.5636 111.509 65.0578 112.619 68.0237C113.73 70.9897 115.575 73.6144 117.054 76.4149C117.616 77.6191 118.29 78.7673 119.069 79.8438C121.75 83.1838 126.967 83.8586 130.746 81.8428C132.141 81.0988 133.408 79.9869 133.982 78.5144C134.325 77.6339 134.403 76.6759 134.628 75.7581C135.095 73.8495 135.638 69.9096 137.189 68.7022C137.871 68.1708 139.224 69.9322 139.79 69.2779C141.243 67.5965 140.938 65.0035 140.035 62.9728C139.169 60.9332 138.156 58.9589 137.006 57.0653C136.518 56.304 132.046 53.4504 132.062 53.5732Z" fill="#2F2E41"/>
<path d="M89.9533 120.89C89.9533 120.89 72.906 137.221 75.0369 145.742C77.1678 154.262 94.2151 179.113 94.2151 179.113C94.2151 179.113 110.552 187.634 112.683 179.113C114.814 170.593 101.318 172.723 101.318 172.723L90.6636 147.162L102.739 130.121L89.9533 120.89Z" fill="#A0616A"/>
<path d="M109.842 105.269L101.318 103.849C101.318 103.849 94.9253 110.95 92.7944 113.79C90.6634 116.63 86.4016 123.73 86.4016 123.73L101.318 134.381L112.683 122.31L109.842 105.269Z" fill="#3F3D56"/>
</g>
<defs>
<clipPath id="clip0">
<rect width="380" height="319" fill="white"/>
</clipPath>
</defs>
</svg>
