<svg width="488" height="357" viewBox="0 0 488 357" fill="none" xmlns="http://www.w3.org/2000/svg">
<g clip-path="url(#clip0)">
<path d="M447.553 118.768V118.768C438.22 118.768 430.655 127.165 430.655 137.524V150.685H434.702L437.045 145.809L436.459 150.685H462.471L464.601 146.252L464.068 150.685H466.997V140.351C466.997 128.431 458.291 118.768 447.553 118.768Z" fill="#2F2E41"/>
<path d="M431.681 179.617L428.875 190.378L455.069 189.442L454.601 180.552C454.601 180.552 434.956 175.406 431.681 179.617Z" fill="#FFB9B9"/>
<path d="M406.422 222.66L414.842 241.374L422.794 231.55L416.245 218.449L406.422 222.66Z" fill="#FFB9B9"/>
<path d="M427.472 291.436L428.407 312.958H438.698L437.294 291.436H427.472Z" fill="#FFB9B9"/>
<path d="M415.31 203.01L419.987 218.449L427.004 293.308C427.004 293.308 433.552 295.179 438.23 292.84L439.165 282.547L441.036 223.596C441.036 223.596 449.924 218.917 448.988 212.367C448.053 205.817 445.714 196.928 445.714 196.928L415.31 203.01Z" fill="#2F2E41"/>
<path d="M429.81 307.811H427.004C427.004 307.811 419.052 316.233 416.245 317.169C413.439 318.104 398.938 326.058 410.632 327.462C422.326 328.865 429.81 322.783 429.81 322.783C429.81 322.783 433.552 325.122 438.698 323.251C443.843 321.379 441.037 315.765 441.037 315.765C441.037 315.765 438.425 307.208 438.327 307.276C438.23 307.343 435.423 311.554 429.81 307.811Z" fill="#2F2E41"/>
<path d="M444.311 147.802C450.253 147.802 455.069 142.984 455.069 137.041C455.069 131.098 450.253 126.28 444.311 126.28C438.369 126.28 433.552 131.098 433.552 137.041C433.552 142.984 438.369 147.802 444.311 147.802Z" fill="#FFB9B9"/>
<path d="M460.214 151.077L455.266 155.204L454.601 155.756L454.134 161.37H435.891C435.891 161.37 438.38 159.213 440.69 156.982C440.737 156.93 440.789 156.874 440.845 156.822C441.158 156.518 441.439 156.238 441.691 155.985C441.827 155.845 441.958 155.714 442.075 155.592C442.267 155.391 442.454 155.199 442.641 155.007C442.643 155.005 442.645 155.001 442.645 154.998C443.124 154.497 443.574 153.969 443.993 153.416L443.997 153.412C444.11 153.263 444.214 153.108 444.311 152.949C445.714 150.609 442.44 145.931 442.44 145.931L452.73 140.784C453.091 145.856 457.38 149.243 459.298 150.516C459.859 150.885 460.214 151.077 460.214 151.077Z" fill="#FFB9B9"/>
<path d="M485.473 229.678C478.457 231.55 477.989 217.514 477.989 217.514L468.413 198.357C466.389 194.309 464.998 189.975 464.287 185.505L462.086 171.663L461.417 172.463V172.468L460.214 173.067L452.908 161.37L450.859 158.095V154.352L457.876 151.077H460.682C460.682 151.077 460.743 151.068 460.851 151.058C462.142 150.923 470.543 150.361 470.973 158.563C471.142 161.782 471.128 164.449 471.04 166.541C470.774 172.33 471.323 178.128 472.671 183.764C473.167 185.796 473.707 187.561 474.247 188.506C476.118 191.781 482.667 217.514 482.667 217.514C482.667 217.514 492.49 227.807 485.473 229.678Z" fill="#FFB9B9"/>
<path d="M442.44 156.224L440.667 159.457L439.619 161.37L434.488 170.727C434.488 170.727 433.033 171.916 430.676 173.45C426.756 176 420.329 179.5 413.907 180.085C403.616 181.02 413.439 147.802 413.439 147.802C413.439 147.802 416.713 134.702 421.391 136.105C426.068 137.509 422.326 142.188 419.052 151.077C415.778 159.967 418.584 169.792 418.584 169.792C418.584 169.792 428.407 163.709 433.552 159.031C436.233 156.593 438.534 155.934 440.12 155.863H440.124C440.65 155.834 441.177 155.875 441.691 155.985C441.949 156.036 442.2 156.117 442.44 156.224V156.224Z" fill="#FFB9B9"/>
<path d="M443.993 153.416C443.974 153.468 443.754 153.884 442.075 155.592C442.76 154.909 443.401 154.182 443.993 153.416V153.416Z" fill="#D0CDE1"/>
<path d="M461.852 171.897L461.417 172.468L454.602 184.295C454.602 184.295 445.714 181.02 439.166 180.085C437.366 179.774 435.516 180.007 433.85 180.755C432.184 181.503 430.779 182.731 429.815 184.281L431.681 176.81L430.676 173.45C430.559 173.057 430.423 172.622 430.278 172.131C428.875 167.452 434.02 162.306 434.02 162.306L440.12 155.863H440.124C440.65 155.834 441.177 155.875 441.691 155.985C441.439 156.238 441.158 156.518 440.845 156.822C440.789 156.874 440.737 156.93 440.69 156.982C438.899 158.811 439.83 159.321 440.667 159.456C440.944 159.499 441.225 159.513 441.504 159.499C443.455 159.779 447.726 158.067 450.859 156.635C452.992 155.662 454.602 154.82 454.602 154.82L458.685 151.077L459.298 150.516C459.859 150.885 460.215 151.077 460.215 151.077H460.682C460.682 151.077 460.743 151.068 460.851 151.058L458.721 152.639C457.66 153.426 456.814 154.466 456.258 155.664C455.701 156.862 455.454 158.18 455.537 159.499L461.852 171.897Z" fill="#D0CDE1"/>
<path d="M436.359 185.231L429.52 187.902C429.52 187.902 392.39 173.535 386.777 185.231C381.164 196.928 406.423 225 406.423 225L417.649 219.853L412.971 205.817C412.971 205.817 440.101 228.742 451.327 216.11C462.553 203.478 455.069 185.616 455.069 185.616C455.069 185.616 448.053 180.085 436.359 185.231Z" fill="#2F2E41"/>
<path d="M416.713 236.228L412.503 239.503C412.503 239.503 416.245 254.475 414.842 256.814C413.439 259.154 410.632 265.704 415.778 265.236C420.923 264.768 426.536 256.814 427.004 254.007C427.472 251.2 430.746 242.778 430.746 242.778C430.746 242.778 436.359 229.678 432.149 229.21C427.939 228.743 421.234 228.429 421.234 228.429L416.713 236.228Z" fill="#2F2E41"/>
<path d="M452.356 123.934C451.543 122.842 450.489 121.952 449.277 121.333C448.064 120.714 446.725 120.383 445.364 120.365H445.032C438.636 120.365 433.451 126.155 433.451 133.296V133.296H435.594L435.94 130.661L436.448 133.296H449.159L450.224 131.067L449.957 133.296H452.458C453.625 139.093 451.948 144.889 447.428 150.685H451.688L453.818 146.227L453.286 150.685H461.406L463.003 140.43C463.003 132.75 458.542 126.237 452.356 123.934Z" fill="#2F2E41"/>
<path d="M411.497 86.7195C432.794 86.7195 450.06 69.4502 450.06 48.1475C450.06 26.8447 432.794 9.57544 411.497 9.57544C390.199 9.57544 372.933 26.8447 372.933 48.1475C372.933 69.4502 390.199 86.7195 411.497 86.7195Z" fill="#FF6584"/>
<path d="M316.59 228.106C315.878 233.782 315.294 239.246 314.815 244.455H330.308C330.872 238.979 331.579 233.529 332.429 228.106H316.59Z" fill="#3F3D56"/>
<path d="M329.262 285.828C328.929 280.405 328.795 274.956 328.859 269.479H313.153C312.898 275.743 312.798 281.242 312.78 285.828H329.262Z" fill="#3F3D56"/>
<path d="M356.051 141.023C368.967 106.607 381.62 83.4673 381.62 83.4673L368.444 75.6265C354.724 96.3199 344.354 118.688 336.524 141.023H356.051Z" fill="#3F3D56"/>
<path d="M314.436 248.793C313.952 254.621 313.6 260.095 313.349 265.142H328.941C329.091 259.692 329.409 254.243 329.895 248.793H314.436Z" fill="#3F3D56"/>
<path d="M319.644 207.42C318.692 213.013 317.867 218.475 317.154 223.769H333.133C334.06 218.263 335.107 212.813 336.273 207.42H319.644Z" fill="#3F3D56"/>
<path d="M335.036 145.36C333.198 150.827 331.506 156.277 329.959 161.709H348.77C350.63 156.049 352.535 150.587 354.445 145.36H335.036Z" fill="#3F3D56"/>
<path d="M323.661 186.733C322.448 192.274 321.362 197.724 320.404 203.082H337.231C338.488 197.541 339.84 192.091 341.286 186.733H323.661Z" fill="#3F3D56"/>
<path d="M312.786 290.166C312.837 297.211 313.07 301.176 313.07 301.176L312.903 304.346H331.25C330.516 299.66 329.956 294.933 329.57 290.166H312.786Z" fill="#3F3D56"/>
<path d="M328.745 166.047C327.24 171.547 325.87 176.997 324.635 182.396H342.476C344.038 176.807 345.668 171.357 347.367 166.047H328.745Z" fill="#3F3D56"/>
<path d="M460.23 98.4588C453.7 84.8052 447.132 74.6213 440.729 67.1168L437.385 72.2554L437.669 63.7197C435.473 61.3954 433.114 59.2311 430.61 57.2435L426.04 64.2657L426.375 54.2242C423.656 52.4657 420.743 51.0273 417.695 49.9378L414.315 55.1313L414.52 48.9811C402.86 46.0543 393.279 50.0634 387.729 53.4864L384.395 52.989L390.112 50.6011C389.591 47.4051 388.702 44.28 387.463 41.2881L377.528 39.8056L385.258 36.5769C383.755 33.7544 382.053 31.043 380.163 28.4634L371.718 27.2033L377.375 24.8406C371.15 17.1873 362.321 8.88772 350.072 0C350.072 0 349.166 7.91642 348.661 18.954L356.957 27.442L348.434 25.2374C348.345 28.6273 348.307 32.1963 348.349 35.8375L354.467 42.0972L348.449 40.5405C348.537 43.3249 348.678 46.1235 348.885 48.8907C343.675 47.6315 338.237 47.6626 333.042 48.9811L333.247 55.1313L329.867 49.9378C326.818 51.0273 323.906 52.4657 321.187 54.2242L321.522 64.2657L316.952 57.2435C314.448 59.2311 312.088 61.3954 309.893 63.7197L310.177 72.2554L306.833 67.1168C300.43 74.6213 293.862 84.8053 287.332 98.4588C287.332 98.4588 295.28 97.922 306.225 96.4273L313.075 86.7349L312.445 95.5171C315.794 94.9933 319.311 94.3869 322.884 93.6887L327.936 86.5408L327.491 92.742C332.474 91.6645 337.473 90.4023 342.195 88.9319L345.585 92.0864L339.52 90.8214C338.143 93.7521 337.109 96.8321 336.438 100L343.793 106.843L335.593 105.133C335.236 108.311 335.107 111.51 335.206 114.706L341.458 120.523L335.457 119.272C336.263 129.104 338.851 140.944 343.926 155.203C343.926 155.203 349.15 149.187 355.807 140.37L353.766 128.677L359.548 135.317C361.538 132.572 363.588 129.65 365.612 126.624L364.107 118.001L368.19 122.689C372.289 116.287 376.123 109.571 378.948 103.175C382.598 107.939 386.509 112.498 390.661 116.831L393.789 111.458L393.933 120.21C396.49 122.802 399.053 125.286 401.524 127.607L405.954 119.998L406.149 131.866C414.346 139.272 420.609 144.197 420.609 144.197C422.91 129.238 423.225 117.123 422.166 107.314L416.508 109.673L421.554 102.783C421.05 99.6251 420.322 96.5073 419.373 93.4534L411.641 96.6767L415.318 91.6563C416.898 92.0372 418.482 92.3991 420.071 92.742L419.626 86.5408L424.678 93.6887C428.251 94.3869 431.768 94.9933 435.117 95.5171L434.487 86.7348L441.337 96.4273C452.282 97.922 460.23 98.4588 460.23 98.4588Z" fill="#6C63FF"/>
<path d="M289.139 218.065C289.641 222.072 290.053 225.928 290.391 229.606H279.455C279.057 225.74 278.558 221.893 277.958 218.065H289.139Z" fill="#3F3D56"/>
<path d="M280.194 258.81C280.428 254.982 280.523 251.136 280.478 247.27H291.565C291.745 251.692 291.815 255.573 291.828 258.81H280.194Z" fill="#3F3D56"/>
<path d="M261.283 156.594C252.167 132.301 243.235 115.967 243.235 115.967L252.536 110.432C262.22 125.04 269.54 140.829 275.067 156.594H261.283Z" fill="#3F3D56"/>
<path d="M290.659 232.667C291 236.782 291.249 240.645 291.426 244.208H280.42C280.314 240.361 280.09 236.514 279.747 232.667H290.659Z" fill="#3F3D56"/>
<path d="M286.983 203.463C287.655 207.411 288.237 211.266 288.74 215.003H277.461C276.806 211.117 276.067 207.27 275.244 203.463H286.983Z" fill="#3F3D56"/>
<path d="M276.118 159.656C277.415 163.515 278.61 167.362 279.702 171.197H266.423C265.11 167.201 263.766 163.345 262.417 159.656H276.118Z" fill="#3F3D56"/>
<path d="M284.147 188.861C285.003 192.772 285.77 196.619 286.446 200.401H274.568C273.681 196.489 272.727 192.643 271.706 188.861H284.147Z" fill="#3F3D56"/>
<path d="M291.824 261.872C291.788 266.845 291.623 269.644 291.623 269.644L291.741 271.881H278.79C279.308 268.574 279.704 265.237 279.976 261.872H291.824Z" fill="#3F3D56"/>
<path d="M280.558 174.258C281.62 178.141 282.588 181.988 283.459 185.799H270.866C269.763 181.854 268.612 178.007 267.414 174.258H280.558Z" fill="#3F3D56"/>
<path d="M187.745 126.549C192.355 116.911 196.991 109.723 201.511 104.425L203.871 108.053L203.671 102.028C205.221 100.387 206.886 98.8591 208.654 97.456L211.879 102.413L211.643 95.3248C213.562 94.0835 215.618 93.0682 217.77 92.2991L220.156 95.9651L220.011 91.6238C228.242 89.5578 235.005 92.3878 238.923 94.804L241.276 94.4529L237.24 92.7673C237.608 90.5113 238.236 88.3053 239.11 86.1934L246.123 85.147L240.667 82.8679C241.728 80.8755 242.929 78.9615 244.263 77.1407L250.224 76.2512L246.232 74.5834C250.625 69.181 256.858 63.3225 265.504 57.0488C265.504 57.0488 266.143 62.6369 266.5 70.4282L260.644 76.4197L266.66 74.8635C266.723 77.2564 266.75 79.7756 266.72 82.3459L262.402 86.7645L266.65 85.6657C266.588 87.6311 266.488 89.6066 266.342 91.56C270.02 90.6711 273.858 90.693 277.525 91.6238L277.381 95.9651L279.766 92.2991C281.918 93.0682 283.974 94.0834 285.893 95.3248L285.657 102.413L288.883 97.456C290.651 98.8591 292.316 100.387 293.866 102.027L293.665 108.053L296.026 104.425C300.545 109.723 305.182 116.911 309.792 126.549C309.792 126.549 304.181 126.17 296.455 125.115L291.62 118.273L292.065 124.473C289.7 124.103 287.218 123.675 284.696 123.182L281.13 118.136L281.444 122.514C277.926 121.753 274.398 120.862 271.065 119.824L268.671 122.051L272.952 121.158C273.925 123.227 274.655 125.401 275.128 127.637L269.936 132.468L275.725 131.26C275.977 133.504 276.068 135.762 275.998 138.018L271.585 142.124L275.82 141.241C275.252 148.182 273.425 156.539 269.843 166.604C269.843 166.604 266.155 162.358 261.456 156.134L262.896 147.88L258.815 152.567C257.41 150.629 255.963 148.567 254.534 146.43L255.597 140.343L252.715 143.653C249.843 139.258 247.304 134.653 245.121 129.878C242.544 133.241 239.784 136.459 236.853 139.518L234.645 135.725L234.543 141.903C232.738 143.733 230.929 145.486 229.185 147.125L226.058 141.753L225.92 150.131C220.134 155.359 215.713 158.835 215.713 158.835C214.089 148.276 213.867 139.724 214.614 132.8L218.608 134.465L215.046 129.602C215.402 127.373 215.916 125.172 216.585 123.016L222.043 125.291L219.448 121.747C218.333 122.016 217.214 122.272 216.093 122.514L216.407 118.137L212.841 123.182C210.319 123.675 207.836 124.103 205.472 124.473L205.917 118.274L201.082 125.115C193.356 126.17 187.745 126.549 187.745 126.549Z" fill="#6C63FF"/>
<path d="M160.836 311.37C195.357 311.37 223.342 308.713 223.342 305.436C223.342 302.159 195.357 299.502 160.836 299.502C126.314 299.502 98.3293 302.159 98.3293 305.436C98.3293 308.713 126.314 311.37 160.836 311.37Z" fill="#3F3D56"/>
<path d="M311.275 311.37C345.796 311.37 373.781 308.713 373.781 305.436C373.781 302.159 345.796 299.502 311.275 299.502C276.753 299.502 248.768 302.159 248.768 305.436C248.768 308.713 276.753 311.37 311.275 311.37Z" fill="#3F3D56"/>
<path opacity="0.2" d="M160.814 206.543L118.196 269.725C116.918 264.843 116.183 259.835 116.005 254.792L147.326 208.361C151.771 207.42 156.279 206.812 160.814 206.543V206.543Z" fill="white"/>
<path opacity="0.2" d="M187.351 205.738L129.68 291.236C127.224 288.577 125.089 285.638 123.319 282.479L175.273 205.458C179.301 205.332 183.333 205.426 187.351 205.738V205.738Z" fill="white"/>
<path opacity="0.2" d="M297.235 205.411L258.375 263.024C257.019 260.061 255.724 256.89 254.489 253.512C254.252 252.863 254.032 252.228 253.82 251.596L284.539 206.051C288.754 205.577 292.994 205.363 297.235 205.411V205.411Z" fill="white"/>
<path opacity="0.2" d="M324.687 207.764L272.355 285.349C270.011 282.627 267.851 279.753 265.889 276.744L313.275 206.497C317.102 206.674 320.914 207.097 324.687 207.764V207.764Z" fill="white"/>
<path d="M368.907 242.068H359.208C363.501 206.87 312.122 206.463 312.122 206.463C303.977 205.365 295.738 205.127 287.543 205.754V205.615H187.109V205.72C179.054 205.135 170.959 205.384 162.954 206.463C162.954 206.463 111.576 206.87 115.868 242.068H106.593V251.393H115.953C115.859 261.524 117.869 281.548 133.494 294.911C147.516 306.902 167.51 308.865 183.918 300.426C196.454 293.979 210.696 280.669 220.587 253.512C223.976 244.208 224.884 236.666 224.008 230.56C233.023 230.107 242.054 230.107 251.068 230.56C250.192 236.666 251.101 244.208 254.489 253.512C264.38 280.669 278.623 293.979 291.158 300.426C307.566 308.865 327.56 306.902 341.583 294.911C357.207 281.548 359.218 261.524 359.124 251.393H368.907V242.068ZM216.121 253.686C206.709 279.529 192.979 291.618 181.202 297.196C166.874 303.982 149.801 302.096 137.503 292.097C122.637 280.008 120.658 261.43 120.713 251.961C120.738 248.197 120.569 244.441 120.42 240.681C119.247 211.134 163.573 210.786 163.573 210.786C163.573 210.786 235.83 199.579 216.121 253.686V253.686ZM251.459 228.438C242.192 227.719 232.884 227.719 223.618 228.438C221.293 218.059 213.457 212.209 204.151 209.006H270.926C261.62 212.209 253.784 218.059 251.459 228.438H251.459ZM355.114 240.546C354.961 244.339 354.792 248.133 354.817 251.927C354.876 261.485 352.876 280.237 337.875 292.432C325.467 302.524 308.245 304.431 293.79 297.59C281.899 291.965 268.033 279.766 258.528 253.669C238.64 199.062 311.563 210.375 311.563 210.375C311.563 210.375 356.296 210.722 355.114 240.546Z" fill="#3F3D56"/>
<path d="M171.172 302.148C171.124 302.069 169.992 300.179 169.6 296.255C169.24 292.655 169.472 286.586 172.618 278.12C178.58 262.083 171.245 249.143 171.17 249.014L171.532 248.804C172.944 251.507 173.964 254.398 174.561 257.389C176.039 264.354 175.501 271.596 173.011 278.266C167.059 294.276 171.484 301.855 171.529 301.93L171.172 302.148Z" fill="#3F3D56"/>
<path d="M168.841 248.072C170.343 248.072 171.56 246.855 171.56 245.353C171.56 243.851 170.343 242.634 168.841 242.634C167.34 242.634 166.123 243.851 166.123 245.353C166.123 246.855 167.34 248.072 168.841 248.072Z" fill="#3F3D56"/>
<path d="M177.415 258.113C178.917 258.113 180.134 256.895 180.134 255.393C180.134 253.892 178.917 252.674 177.415 252.674C175.914 252.674 174.697 253.892 174.697 255.393C174.697 256.895 175.914 258.113 177.415 258.113Z" fill="#3F3D56"/>
<path d="M171.56 264.806C173.061 264.806 174.278 263.589 174.278 262.087C174.278 260.585 173.061 259.368 171.56 259.368C170.058 259.368 168.841 260.585 168.841 262.087C168.841 263.589 170.058 264.806 171.56 264.806Z" fill="white"/>
<path d="M178.67 270.454C180.171 270.454 181.389 269.236 181.389 267.735C181.389 266.233 180.171 265.015 178.67 265.015C177.169 265.015 175.951 266.233 175.951 267.735C175.951 269.236 177.169 270.454 178.67 270.454Z" fill="white"/>
<path d="M169.469 279.239C170.97 279.239 172.187 278.022 172.187 276.52C172.187 275.018 170.97 273.801 169.469 273.801C167.967 273.801 166.75 275.018 166.75 276.52C166.75 278.022 167.967 279.239 169.469 279.239Z" fill="#3F3D56"/>
<path d="M172.814 302.248C172.814 302.248 170.096 295.554 178.252 290.534L172.814 302.248Z" fill="#3F3D56"/>
<path d="M169.471 302.126C169.471 302.126 168.234 295.008 158.657 295.069L169.471 302.126Z" fill="#3F3D56"/>
<path d="M143.597 144.637C143.591 145.075 143.479 145.505 143.27 145.89C143.061 146.275 142.762 146.603 142.397 146.846L142.296 146.909H97.0369L97.2191 146.354C97.2488 146.256 100.563 136.639 115.229 138.495C116.611 138.021 130.112 133.612 138.194 138.567C141.779 140.763 143.597 142.806 143.597 144.637Z" fill="#F1F1F1"/>
<path d="M227.503 177.275C227.498 177.713 227.386 178.143 227.177 178.527C226.968 178.912 226.668 179.24 226.304 179.483L226.202 179.547H180.944L181.126 178.992C181.155 178.894 184.469 169.276 199.136 171.133C200.518 170.658 214.019 166.25 222.1 171.205C225.685 173.401 227.503 175.444 227.503 177.275Z" fill="#F1F1F1"/>
<path d="M246.573 45.8757C246.568 46.3136 246.456 46.7435 246.247 47.1283C246.038 47.5131 245.738 47.8412 245.374 48.084L245.272 48.1476H200.013L200.196 47.5924C200.225 47.4949 203.539 37.8773 218.206 39.7338C219.587 39.2591 233.089 34.8509 241.17 39.8059C244.755 42.0015 246.573 44.0446 246.573 45.8757Z" fill="#F1F1F1"/>
<path d="M12.2721 264.496L16.1442 276.484C16.1442 276.484 12.6409 287.734 14.3004 300.275C15.9598 312.816 15.0379 313.185 15.0379 313.185C15.0379 313.185 -1.54271 312.23 0.116743 317.209C1.77619 322.189 17.988 319.271 17.988 319.271C17.988 319.271 21.1016 318.432 22.5766 309.58C24.0517 300.727 27.7604 283.676 27.7604 283.676L24.273 267.58L12.2721 264.496Z" fill="#FFB8B8"/>
<path d="M13.5627 239.967C13.5627 239.967 6.55615 242.549 6.55615 249.557C6.55615 256.566 9.13752 266.156 10.797 266.709C12.4564 267.262 23.5195 274.824 25.5477 269.475C27.5759 264.127 13.5627 239.967 13.5627 239.967Z" fill="#D0CDE1"/>
<path d="M72.1968 322.959L86.9474 322.405L98.1952 320.746L94.8762 331.811L67.5874 332.549L72.1968 322.959Z" fill="#FFB8B8"/>
<path d="M93.401 324.434C93.401 324.434 93.2166 320.377 91.5572 320.561C89.8977 320.746 91.004 319.086 92.4791 318.717C93.9542 318.348 98.195 316.504 98.195 316.504L114.974 317.61C114.974 317.61 125.853 327.201 121.427 332.365C117.002 337.528 105.57 332.918 105.57 332.918L93.2166 333.102C93.2166 333.102 89.1602 326.463 93.401 324.434Z" fill="#2F2E41"/>
<path d="M100.039 310.234L105.386 335.315L116.449 333.102L110.18 301.75L103.542 298.246L100.039 310.234Z" fill="#FFB8B8"/>
<path d="M36.4264 307.099C36.4264 307.099 5.44999 321.115 18.5412 335.316C18.5412 335.316 18.5412 341.955 32.37 340.664C46.1988 339.373 72.9344 336.976 74.2251 337.713C75.5158 338.451 79.5722 323.144 76.0689 322.406C72.5656 321.668 68.3248 320.746 68.3248 320.746C68.3248 320.746 72.0125 320.193 72.0125 317.058C72.0125 317.058 82.5223 316.32 85.6568 309.681C88.7914 303.041 91.7415 298.062 91.7415 298.062L98.9325 316.504C98.9325 316.504 107.23 301.197 113.499 308.021C113.499 308.021 106.492 263.943 101.145 259.886C95.798 255.828 92.1103 254.537 87.132 258.226C82.1536 261.914 77.544 271.32 77.544 271.32L36.4264 307.099Z" fill="#2F2E41"/>
<path d="M110.364 327.754C109.075 328.727 107.844 329.774 106.677 330.889C105.202 332.365 103.173 331.627 102.989 330.889C102.805 330.152 99.4857 331.443 99.117 336.791C98.7482 342.139 96.5356 346.934 102.436 348.594C108.336 350.254 108.152 355.049 108.152 355.049C112.82 357.289 118.178 357.62 123.087 355.971C131.384 353.205 128.434 350.254 128.434 350.254L117.371 331.996C117.371 331.996 114.421 326.463 110.364 327.754Z" fill="#2F2E41"/>
<path d="M79.7566 236.279C79.7566 236.279 97.4575 242.365 99.3013 243.656C101.145 244.947 109.442 251.033 105.386 254.168C101.33 257.303 98.0106 259.332 90.0821 256.935C82.1536 254.537 73.3032 247.16 73.3032 247.16L79.7566 236.279Z" fill="#FFB8B8"/>
<path d="M62.0557 228.164C62.0557 228.164 69.0622 226.873 74.0406 229.64C79.019 232.406 83.2598 237.939 83.2598 237.939C83.2598 237.939 78.6502 247.713 75.3313 249.189C72.0124 250.664 65.9277 243.287 65.9277 243.287L62.0557 228.164Z" fill="#D0CDE1"/>
<path d="M29.7885 222.816C29.7885 222.816 29.9729 230.008 29.2354 230.746C28.4979 231.484 38.0858 253.246 48.5957 243.656C59.1055 234.066 50.9927 230.193 50.9927 230.193C50.9927 230.193 47.1206 223 47.305 222.262C47.4894 221.525 30.1573 222.262 30.1573 222.262L29.7885 222.816Z" fill="#FFB8B8"/>
<path opacity="0.1" d="M29.7885 222.816C29.7885 222.816 29.9729 230.008 29.2354 230.746C28.4979 231.484 38.0858 253.246 48.5957 243.656C59.1055 234.066 50.9927 230.193 50.9927 230.193C50.9927 230.193 47.1206 223 47.305 222.262C47.4894 221.525 30.1573 222.262 30.1573 222.262L29.7885 222.816Z" fill="black"/>
<path d="M32.7387 236.648C32.7387 236.648 39.7453 241.443 42.6954 240.336C45.6456 239.23 49.3332 234.435 49.702 234.066C50.0708 233.697 68.8779 271.504 68.8779 271.504C68.8779 271.504 66.1122 285.336 58.7368 289.393C51.3615 293.451 51.4537 296.678 50.5317 299.445C49.6098 302.211 37.7171 290.684 37.7171 290.684L30.1573 258.594V239.045L32.7387 236.648Z" fill="#D0CDE1"/>
<path d="M29.6964 228.072C29.6964 228.072 27.3916 227.611 24.9946 229.64C22.5976 231.668 11.3502 239.23 11.9034 239.967C12.4566 240.705 17.4349 251.217 18.5412 255.459C19.6475 259.701 21.307 260.254 21.307 260.254C21.307 260.254 25.179 263.021 24.6259 265.049C24.0727 267.078 21.6757 294.742 24.9946 300.828C28.3135 306.914 27.7604 312.262 26.8385 313.738C25.9165 315.213 35.6889 309.496 35.6889 309.496C35.6889 309.496 50.2552 297.693 51.3615 294.189C52.0769 291.78 52.5707 289.31 52.8366 286.812C52.8366 286.812 43.433 249.557 40.4829 247.529C37.5327 245.5 29.6964 228.072 29.6964 228.072Z" fill="#575A89"/>
<path d="M49.9527 228.218C49.9527 228.218 54.496 225.398 55.4179 226.135C56.3399 226.873 65.0059 226.873 65.1903 227.611C65.3747 228.348 65.7434 246.053 72.0125 250.664C78.2815 255.275 74.2251 264.496 74.2251 264.496L78.8347 271.873C78.8347 271.873 53.7589 296.031 55.4179 287.734C55.5101 287.272 55.4179 287.18 55.4179 287.18C55.4179 287.18 45.6456 245.316 46.9363 243.102C48.227 240.889 50.5721 230.853 49.9527 228.218Z" fill="#575A89"/>
<path d="M88.607 245.131L63.5308 253.799C63.5308 253.799 38.6391 259.701 42.5111 266.525C46.3832 273.348 62.7933 261.73 62.7933 261.73L96.1864 257.987C96.1864 257.987 109.442 246.791 88.607 245.131Z" fill="#FFB8B8"/>
<path d="M39.7452 229.64C47.2808 229.64 53.3896 223.529 53.3896 215.992C53.3896 208.455 47.2808 202.344 39.7452 202.344C32.2096 202.344 26.1008 208.455 26.1008 215.992C26.1008 223.529 32.2096 229.64 39.7452 229.64Z" fill="#FFB8B8"/>
<path d="M28.8793 202.429L26.3554 201.511C26.3554 201.511 31.6327 196.232 38.975 196.691L36.91 194.626C36.91 194.626 41.9578 192.79 46.5468 197.609C48.9591 200.143 51.7502 203.121 53.4901 206.475H56.1931L55.065 208.732L59.0133 210.989L54.9607 210.583C55.3446 212.532 55.2125 214.547 54.5774 216.428L53.6596 218.952C53.6596 218.952 49.9884 211.609 49.9884 210.691V212.985C49.9884 212.985 47.4645 210.92 47.4645 209.543L46.0878 211.15L45.3995 208.625L36.91 211.15L38.2866 209.084L33.0094 209.773L35.0744 207.248C35.0744 207.248 29.1088 210.232 28.8793 212.756C28.6498 215.281 25.6671 218.494 25.6671 218.494L24.2904 216.198C24.2904 216.198 22.2254 205.871 28.8793 202.429Z" fill="#2F2E41"/>
<path opacity="0.2" d="M32.2055 212.908L27.9714 219.185C27.8445 218.7 27.7715 218.203 27.7538 217.702L30.8654 213.089C31.307 212.996 31.7549 212.935 32.2055 212.908V212.908Z" fill="white"/>
<path opacity="0.2" d="M34.8419 212.828L29.1124 221.322C28.8684 221.058 28.6563 220.766 28.4805 220.452L33.642 212.801C34.0422 212.788 34.4427 212.797 34.8419 212.828Z" fill="white"/>
<path opacity="0.2" d="M45.7585 212.796L41.8979 218.52C41.7632 218.225 41.6345 217.91 41.5118 217.575C41.4883 217.51 41.4664 217.447 41.4453 217.384L44.4972 212.86C44.9159 212.813 45.3372 212.791 45.7585 212.796V212.796Z" fill="white"/>
<path opacity="0.2" d="M48.4857 213.03L43.2867 220.738C43.0539 220.467 42.8392 220.182 42.6443 219.883L47.352 212.904C47.7322 212.921 48.1109 212.963 48.4857 213.03V213.03Z" fill="white"/>
</g>
<defs>
<clipPath id="clip0">
<rect width="488" height="357" fill="white"/>
</clipPath>
</defs>
</svg>
