<svg width="370" height="338" viewBox="0 0 370 338" fill="none" xmlns="http://www.w3.org/2000/svg">
<g clip-path="url(#clip0)">
<path d="M345.405 200.663C352.805 182.02 355.825 161.927 354.231 141.934C352.638 121.941 346.474 102.58 336.214 85.3419L126.699 114.333L327.482 72.5155C315.266 56.6221 299.554 43.7512 281.563 34.8992C263.572 26.0472 243.784 21.4516 223.73 21.4681C151.428 21.4681 92.8152 80.0437 92.8152 152.301C92.8166 158.272 93.2237 164.237 94.0336 170.154L345.405 200.663Z" fill="#F2F2F2"/>
<path d="M101.566 199.405C120.488 248.385 168.046 283.133 223.73 283.133C275.982 283.133 321.078 252.536 342.075 208.296L101.566 199.405Z" fill="#F2F2F2"/>
<path d="M338.839 244.909C338.839 296.323 262.985 338 169.419 338C119.153 338 74.0004 325.974 42.9761 306.867C22.733 294.404 8.5018 278.925 2.79286 261.819C0.950364 256.371 0.00708805 250.66 0 244.909C0 193.499 140.397 -38.4025 169.419 151.823C198.442 342.048 338.839 193.499 338.839 244.909Z" fill="#6C63FF"/>
<path opacity="0.1" d="M253.616 278.669C253.616 297.652 193.626 313.044 119.621 313.044C91.117 313.044 64.6927 310.761 42.9762 306.867C22.7331 294.405 8.50191 278.925 2.79297 261.82C25.7673 251.358 69.4775 244.293 119.621 244.293C193.626 244.293 253.616 259.685 253.616 278.669Z" fill="black"/>
<path d="M156.894 82.8656C146.275 64.9336 125.266 64.0979 125.266 64.0979C125.266 64.0979 104.793 61.4816 91.66 88.7922C79.4191 114.248 62.5249 138.826 88.9402 144.785L93.7116 129.944L96.6665 145.89C100.427 146.16 104.201 146.225 107.969 146.083C136.257 145.17 163.198 146.35 162.33 136.205C161.177 122.719 167.112 100.12 156.894 82.8656Z" fill="#2F2E41"/>
<path d="M87.4319 239.905C87.038 241.862 86.7466 243.852 86.0772 245.733C85.4127 247.6 84.3868 249.327 83.7792 251.214C81.8425 257.228 84.5273 263.933 88.8155 268.575C92.5342 272.584 97.3343 275.433 102.637 276.777C106.505 277.749 110.528 277.889 114.514 278.024C125.553 278.398 136.877 278.733 147.337 275.187C150.642 274.04 153.834 272.59 156.873 270.858C157.833 270.401 158.678 269.736 159.348 268.911C160.146 267.776 160.248 266.303 160.241 264.916C160.217 260.239 159.268 255.586 159.494 250.915C159.618 248.327 160.103 245.742 159.865 243.162C159.324 237.312 154.675 232.076 148.927 230.842C145.96 230.205 142.882 230.552 139.861 230.843C132.019 231.596 124.144 231.948 116.266 231.897C108.216 231.846 100.217 230.618 92.2078 230.49C89.8393 230.452 89.8871 231.181 89.133 233.472C88.4385 235.581 87.8704 237.729 87.4319 239.905V239.905Z" fill="#2F2E41"/>
<path d="M110.275 124.421C109.888 126.445 109.47 128.543 108.253 130.206C106.853 132.12 104.569 133.214 103.063 135.045C100.795 137.802 100.665 141.681 100.656 145.25C100.647 148.537 100.714 152.044 102.549 154.773C103.739 156.544 105.551 157.785 107.321 158.978C114.201 163.611 121.635 168.328 129.929 168.48C133.366 168.544 137.051 167.657 139.312 165.07C140.289 163.854 141.057 162.486 141.584 161.019C143.705 155.794 144.991 150.269 145.394 144.645C145.583 141.999 145.565 139.276 144.669 136.779C143.661 133.971 141.624 131.661 140.277 128.999C138.685 125.834 138.103 122.257 138.609 118.75C138.676 118.503 138.655 118.241 138.551 118.008C138.44 117.883 138.302 117.785 138.147 117.722C137.992 117.66 137.825 117.634 137.658 117.646L121.212 116.463C119.68 116.387 118.154 116.213 116.645 115.941C115.758 115.761 113.417 114.502 112.571 114.837C111.006 115.456 110.596 122.742 110.275 124.421Z" fill="#A0616A"/>
<path opacity="0.1" d="M110.275 124.934C109.888 126.958 109.47 129.056 108.253 130.719C106.853 132.633 104.569 133.727 103.063 135.558C100.795 138.315 100.665 142.194 100.656 145.763C100.647 149.051 100.714 152.557 102.549 155.286C103.739 157.057 105.551 158.299 107.321 159.491C114.201 164.124 121.635 168.841 129.929 168.994C133.366 169.057 137.051 168.17 139.312 165.583C140.289 164.368 141.057 162.999 141.584 161.532C143.705 156.308 144.991 150.782 145.394 145.158C145.583 142.512 145.565 139.789 144.669 137.292C143.661 134.484 141.624 132.174 140.277 129.512C138.685 126.347 138.103 122.77 138.609 119.264C138.676 119.017 138.655 118.754 138.551 118.521C138.44 118.396 138.302 118.298 138.147 118.236C137.992 118.173 137.825 118.147 137.658 118.16L121.212 116.976C119.68 116.9 118.154 116.726 116.645 116.454C115.758 116.274 113.417 115.016 112.571 115.35C111.006 115.97 110.596 123.255 110.275 124.934Z" fill="black"/>
<path d="M126.003 126.625C139.33 126.625 150.133 115.828 150.133 102.51C150.133 89.1925 139.33 78.3962 126.003 78.3962C112.677 78.3962 101.874 89.1925 101.874 102.51C101.874 115.828 112.677 126.625 126.003 126.625Z" fill="#A0616A"/>
<path d="M113.659 156.52C114.917 157.834 116.249 159.135 117.897 159.905C119.537 160.671 121.383 160.862 123.192 160.912C127.542 161.035 132.257 160.238 135.283 157.113C139.183 153.085 139.054 146.587 142.112 141.888C142.358 141.462 142.694 141.094 143.097 140.811C143.61 140.532 144.189 140.399 144.772 140.426C148.634 140.39 151.997 142.893 155.033 145.278C156.392 146.346 157.786 147.453 158.644 148.954C159.244 150.125 159.655 151.382 159.862 152.681C161.368 160.03 161.856 167.544 162.34 175.03C162.608 179.164 162.875 183.303 162.855 187.446C162.79 201.097 159.615 214.519 156.458 227.8C156.051 229.511 155.494 231.424 153.937 232.243C153.243 232.555 152.498 232.737 151.738 232.78C142.695 233.841 133.634 234.904 124.53 235.044C120.977 235.099 117.426 235.013 113.877 234.786C113.266 234.778 112.66 234.673 112.082 234.474C111.298 234.097 110.624 233.525 110.126 232.813C105.201 226.612 104.911 218.038 104.942 210.122C105.019 190.766 105.711 171.426 107.018 152.101C107.126 150.506 107.15 148.569 106 147.314C108.07 150.627 110.95 153.691 113.659 156.52Z" fill="#D0CDE1"/>
<path d="M108.548 128.677C107.733 130.151 101.725 133.812 100.565 135.034C94.0839 141.861 82.2552 141.605 76.328 148.917C74.2425 151.49 73.1591 154.722 72.3622 157.936C71.2352 162.481 70.6334 167.438 72.5214 171.724C74.338 175.848 78.1623 178.699 80.7587 182.383C83.6095 186.427 84.8913 191.338 86.1197 196.131C87.0267 199.669 87.9412 203.296 87.588 206.932C87.1864 211.065 85.1847 214.851 84.0028 218.832C82.821 222.814 82.617 227.557 85.3496 230.686C87.3572 232.985 90.5061 233.896 93.5159 234.409C97.3577 235.063 101.262 235.25 105.155 235.422C108.596 235.573 112.389 235.603 115.034 233.399C117.121 231.659 118.028 228.837 118.145 226.124C118.262 223.411 117.698 220.721 117.344 218.029C116.977 215.237 116.836 212.422 116.718 209.609C116.189 196.988 116.117 184.359 116.501 171.722C116.582 169.093 116.679 166.431 116.118 163.86C115.38 160.48 113.552 157.459 112.026 154.353C108.999 148.188 107.567 142.199 108.035 135.347C108.497 128.583 111.448 123.431 108.548 128.677Z" fill="#575A89"/>
<path d="M142.432 129.19C143.673 130.465 147.891 130.885 149.47 131.706C150.921 132.461 152.526 132.855 154.097 133.307C159.857 134.968 165.336 137.481 170.351 140.763C171.393 141.372 172.314 142.167 173.069 143.109C173.952 144.337 174.273 145.869 174.573 147.352C175.346 151.18 176.123 155.053 175.949 158.954C175.765 163.095 174.517 167.105 173.279 171.061L168.652 185.842C165.199 196.875 161.724 208.017 160.752 219.536C160.215 225.921 160.454 232.347 161.464 238.674C161.566 239.31 161.651 240.039 161.231 240.527C160.926 240.828 160.525 241.013 160.098 241.048C157.865 241.397 155.704 240.259 153.681 239.252C147.497 236.177 140.899 234.019 134.092 232.847C136.752 229.006 138.804 224.778 140.176 220.313C140.956 217.477 141.57 214.599 142.015 211.692L144.167 199.253C144.956 194.692 145.746 190.118 146.013 185.497C146.176 183.765 146.075 182.017 145.713 180.315C145.301 178.673 144.482 177.168 143.748 175.642C140.201 168.269 138.537 159.855 139.932 151.794C140.543 148.266 141.73 144.734 141.235 141.188C140.759 137.779 141.254 135.129 140.378 131.755C136.785 117.902 140.097 126.791 142.432 129.19Z" fill="#575A89"/>
<path d="M76.2665 160.575C74.6496 163.928 71.9463 166.785 71.0262 170.391C70.6682 172.077 70.5148 173.8 70.5693 175.522C70.5475 178.118 70.5334 180.767 71.331 183.238C71.8445 184.828 72.68 186.295 73.2818 187.854C74.1208 190.033 74.4945 192.363 74.3791 194.694C74.2167 197.924 73.1187 201.06 73.0329 204.293C72.8979 209.377 75.251 214.157 77.547 218.695C78.1249 217.265 79.0085 215.978 80.136 214.925C81.2635 213.872 82.6077 213.077 84.0744 212.598C85.5412 212.118 87.0952 211.964 88.6277 212.147C90.1602 212.33 91.6342 212.845 92.9466 213.657C93.5523 213.098 93.6169 212.18 93.6406 211.356C93.8104 205.458 93.9741 199.559 94.1318 193.661C94.3803 184.538 94.6171 175.293 92.5171 166.412C91.569 162.402 90.0938 158.407 87.3893 155.297C85.9653 153.659 81.131 149.345 78.7934 151.18C77.7422 152.005 77.9879 154.251 77.8213 155.388C77.5699 157.186 77.0456 158.935 76.2665 160.575Z" fill="#575A89"/>
<path d="M176.422 150.911C177.187 153.291 177.232 155.834 177.248 158.334C177.279 163.433 177.211 168.531 177.045 173.629C176.96 176.238 176.842 178.884 176.051 181.372C175.528 183.013 174.723 184.552 174.183 186.188C172.567 191.089 173.45 196.405 173.589 201.564C173.687 203.233 173.544 204.909 173.165 206.538C172.312 209.736 170.02 212.32 168.421 215.218C166.901 217.97 165.984 221.055 164.17 223.622C162.355 226.19 159.214 228.224 156.169 227.436C153.862 226.839 152.223 224.798 151.089 222.703C148.615 218.097 147.769 212.792 148.687 207.645C149.826 201.384 153.506 195.83 154.833 189.606C156.656 181.059 153.886 172.239 153.968 163.5C153.93 162.131 154.116 160.764 154.519 159.454C155.215 157.458 156.71 155.864 158.091 154.263C159.817 152.262 161.421 150.159 162.893 147.965C163.882 146.492 165.225 142.701 166.978 142.386C170.892 141.682 175.451 147.889 176.422 150.911Z" fill="#575A89"/>
<path d="M55.9564 236.104C53.792 235.56 51.5618 235.323 49.3313 235.4C46.9877 235.529 44.6986 236.156 42.6162 237.238C40.5337 238.32 38.7056 239.833 37.2534 241.675C35.8012 243.518 34.7582 245.649 34.1938 247.926C33.6293 250.202 33.5564 252.573 33.9797 254.88C34.4405 257.392 35.4758 259.759 36.605 262.05C38.3619 265.613 40.4693 269.168 43.7219 271.452C45.6247 272.787 47.8269 273.62 50.0029 274.44L67.1341 280.889C69.6543 281.838 72.1749 282.787 74.72 283.667C87.5065 288.084 100.837 290.732 114.342 291.539C118.456 291.783 122.631 291.852 126.644 290.916C127.597 290.694 128.613 290.362 129.164 289.555C129.491 288.987 129.683 288.351 129.727 287.697L130.781 280.322C130.929 279.284 131.072 278.19 130.691 277.213C130.209 275.973 128.998 275.194 127.844 274.531C116.581 268.067 103.431 264.5 93.9511 255.628C91.7194 253.539 89.8518 250.228 87.1403 248.809C84.0655 247.2 80.4443 246.282 77.2661 244.799C70.318 241.558 63.4868 237.834 55.9564 236.104Z" fill="#2F2E41"/>
<path opacity="0.1" d="M73.0596 246.047C79.1147 247.943 104.68 261.08 109.062 265.666C108.474 265.878 88.5459 254.717 87.9479 254.537C82.5124 252.907 77.0466 251.266 71.8847 248.88C70.8463 248.4 65.1384 246.144 65.3969 244.835C65.6886 243.357 71.9846 245.71 73.0596 246.047Z" fill="black"/>
<path d="M148.602 295.364C148.945 295.389 149.286 295.288 149.561 295.081C149.682 294.926 149.771 294.749 149.822 294.559C149.874 294.37 149.887 294.172 149.861 293.977C149.852 290.628 149.843 287.279 149.833 283.93C146.942 282.553 143.708 282.112 140.534 281.688L125.723 279.709C126.064 279.755 123.408 286.085 123.815 286.93C124.533 288.419 130.018 289.739 131.566 290.442C136.948 292.887 142.54 295.574 148.602 295.364Z" fill="#A0616A"/>
<path d="M102.133 283.895C99.3369 284.34 96.2158 284.734 94.4048 286.909C92.1082 289.668 93.0859 293.781 94.1814 297.198C94.3442 297.889 94.6709 298.532 95.1341 299.07C95.8817 299.807 97.0274 299.915 98.0756 299.982C100.626 300.143 103.34 300.269 105.568 299.019C106.623 298.427 107.495 297.562 108.479 296.857C110.122 295.765 111.928 294.939 113.83 294.412C117.326 293.313 120.925 292.572 124.572 292.2C126.001 292.054 127.459 291.961 128.803 291.455C130.148 290.948 131.393 289.945 131.783 288.563C132.299 286.737 131.238 284.876 130.219 283.274C128.95 281.279 127.606 279.179 125.715 277.711C122.955 275.568 121.59 277.213 118.81 278.584C113.549 281.179 107.927 282.969 102.133 283.895V283.895Z" fill="#A0616A"/>
<path d="M94.8255 286.412L77.0694 281.168C74.91 280.53 72.7136 279.886 70.4618 279.888C68.2099 279.89 65.854 280.628 64.3936 282.34C63.0167 283.955 62.6226 286.163 62.2794 288.256L61.5451 292.735C61.172 295.011 60.7982 297.331 61.134 299.613C61.4699 301.895 62.6355 304.174 64.6614 305.279C67.1185 306.619 70.13 305.964 72.8722 305.404C78.4114 304.273 84.0455 303.669 89.6987 303.601C91.824 303.575 94.0532 303.602 95.9312 302.607C98.1636 301.425 99.4991 298.925 99.7287 296.41C100.078 292.584 98.8021 287.587 94.8255 286.412Z" fill="#2F2E41"/>
<path d="M155.581 281.842C157.883 281.439 159.914 280.131 162.12 279.36C165.225 278.273 168.589 278.273 171.878 278.285C173.086 278.29 174.372 278.317 175.377 278.986C176.826 279.95 177.197 281.879 177.443 283.601C177.939 287.064 178.434 290.527 178.93 293.99C179.209 295.944 179.487 297.951 179.051 299.876C178.615 301.801 177.302 303.657 175.39 304.154C173.068 304.757 170.792 303.275 168.6 302.301C163.12 299.868 156.751 300.49 151.038 298.671C149.978 298.333 148.842 297.817 148.409 296.792C148.214 296.215 148.144 295.603 148.205 294.997C148.303 291.658 147.598 287.097 148.604 283.906C149.509 281.036 153.012 281.842 155.581 281.842Z" fill="#2F2E41"/>
<path d="M193.157 231.922C196.705 231.033 200.383 230.782 204.019 231.18C206.922 231.5 209.914 232.308 212.034 234.316C214.615 236.761 215.444 240.542 215.513 244.095C215.626 251.171 213.278 258.067 208.869 263.605C207.792 265.006 206.512 266.238 205.07 267.259C203.515 268.232 201.858 269.03 200.128 269.64L161.763 284.762C151.67 288.741 141.542 292.731 131.014 295.353C130.726 295.492 130.414 295.572 130.095 295.589C129.775 295.605 129.456 295.557 129.156 295.448C128.855 295.339 128.58 295.172 128.345 294.955C128.11 294.738 127.922 294.476 127.79 294.185C124.428 289.387 121.608 284.232 119.381 278.814C119.276 278.685 119.203 278.532 119.169 278.37C119.135 278.207 119.14 278.038 119.185 277.878C119.23 277.718 119.313 277.571 119.427 277.449C119.541 277.328 119.682 277.236 119.839 277.18L146.975 261.599C148.919 260.483 150.884 259.351 152.498 257.796C153.671 256.66 154.631 255.324 155.334 253.851C155.896 252.676 155.948 249.906 156.667 249.038C157.37 248.188 159.777 248.12 160.888 247.786C162.456 247.306 163.991 246.727 165.484 246.05C171.554 243.336 176.959 239.393 182.778 236.216C186.041 234.351 189.529 232.908 193.157 231.922Z" fill="#2F2E41"/>
<path opacity="0.1" d="M177.773 243.558C173.111 247.057 167.075 250.274 162.454 253.866C160.877 255.091 134.589 269.861 134.218 271.823C138.528 272.549 165.988 253.351 169.917 251.435C173.846 249.52 177.328 246.818 180.779 244.137C181.659 243.453 185.386 241.399 182.861 240.635C181.439 240.205 178.823 242.859 177.773 243.558Z" fill="black"/>
<path d="M152.199 81.137L131.443 70.2715L102.779 74.7167L96.8491 100.892L111.612 100.325L115.736 90.7082V100.167L122.547 99.9047L126.501 84.5944L128.972 100.892L153.188 100.399L152.199 81.137Z" fill="#2F2E41"/>
<path d="M81.697 228.532C82.7225 230.062 83.9241 231.558 85.5713 232.384C87.6297 233.415 90.1704 233.231 92.2316 232.205C94.275 231.11 95.9477 229.434 97.038 227.389C99.2938 223.408 99.761 218.645 99.4795 214.079C99.198 209.512 98.2224 205.016 97.7906 200.461C97.4767 197.151 97.4512 193.82 97.4259 190.495C97.4206 189.796 97.4318 189.043 97.845 188.479C98.3447 187.797 99.2595 187.609 100.07 187.368C104.623 186.017 107.645 181.752 109.811 177.528C111.258 174.708 112.516 171.625 112.237 168.468C111.958 165.311 109.687 162.13 106.532 161.808C103.931 161.543 101.53 163.194 99.6536 165.013C94.9206 169.633 91.8788 175.708 91.017 182.263C90.6051 185.473 90.7231 188.77 89.8495 191.887C87.9841 198.54 82.1476 202.62 79.239 208.607C76.0341 215.205 77.803 222.694 81.697 228.532Z" fill="#A0616A"/>
<path d="M167.584 203.111C166.92 204.654 165.954 206.049 164.742 207.213C163.53 208.376 162.097 209.286 160.528 209.887C158.577 210.67 156.425 210.802 154.394 210.262C153.386 209.983 152.456 209.475 151.677 208.779C150.898 208.082 150.29 207.215 149.9 206.246C149.589 205.269 149.419 204.253 149.394 203.228C149.102 198.741 149.215 194.117 150.846 189.927C151.475 188.31 152.323 186.777 152.819 185.116C153.385 183.22 153.476 181.22 153.562 179.244L154.098 167.001C154.187 166.112 154.126 165.215 153.916 164.346C153.382 162.575 151.725 161.424 150.205 160.367C146.534 157.816 142.906 154.839 141.127 150.739C140.583 149.484 140.224 148.09 140.5 146.75C141.001 144.319 143.456 142.745 145.883 142.215C147.471 141.868 149.112 141.846 150.709 142.15C152.305 142.454 153.823 143.078 155.172 143.984C156.521 144.89 157.672 146.059 158.557 147.422C159.441 148.785 160.041 150.312 160.319 151.912C160.559 153.294 160.555 154.705 160.696 156.1C160.994 159.06 161.934 161.913 162.522 164.829C163.971 172.012 163.22 179.437 164.653 186.618C165.851 192.623 170.368 196.541 167.584 203.111Z" fill="#A0616A"/>
<path d="M125.781 157.071C128.617 157.071 130.915 154.774 130.915 151.941C130.915 149.107 128.617 146.81 125.781 146.81C122.946 146.81 120.647 149.107 120.647 151.941C120.647 154.774 122.946 157.071 125.781 157.071Z" fill="#D0CDE1"/>
<path d="M216 142C222.075 142 227 137.523 227 132C227 126.477 222.075 122 216 122C209.925 122 205 126.477 205 132C205 137.523 209.925 142 216 142Z" fill="#D0CDE1"/>
<path d="M238 176C244.075 176 249 171.523 249 166C249 160.477 244.075 156 238 156C231.925 156 227 160.477 227 166C227 171.523 231.925 176 238 176Z" fill="#D0CDE1"/>
<path d="M260 137C266.075 137 271 132.523 271 127C271 121.477 266.075 117 260 117C253.925 117 249 121.477 249 127C249 132.523 253.925 137 260 137Z" fill="#D0CDE1"/>
<path d="M269 217C275.075 217 280 212.523 280 207C280 201.477 275.075 197 269 197C262.925 197 258 201.477 258 207C258 212.523 262.925 217 269 217Z" fill="#D0CDE1"/>
<path d="M304 150C310.075 150 315 145.523 315 140C315 134.477 310.075 130 304 130C297.925 130 293 134.477 293 140C293 145.523 297.925 150 304 150Z" fill="#D0CDE1"/>
</g>
<defs>
<clipPath id="clip0">
<rect width="370" height="338" fill="white"/>
</clipPath>
</defs>
</svg>
